<?xml version="1.0" encoding="utf-8"?>
<!-- Svg Vector Icons : http://www.onlinewebfonts.com/icon -->
<!DOCTYPE svg PUBLIC "-//W3C//DTD SVG 1.1//EN" "http://www.w3.org/Graphics/SVG/1.1/DTD/svg11.dtd">
<svg version="1.1" xmlns="http://www.w3.org/2000/svg" xmlns:xlink="http://www.w3.org/1999/xlink" x="0px" y="0px" viewBox="0 0 256 256" enable-background="new 0 0 256 256" xml:space="preserve">
<metadata> Svg Vector Icons : http://www.onlinewebfonts.com/icon </metadata>
<g><g><path fill="#000000" d="M199.2,10H56.8C31,10,10,31,10,56.8v142.4C10,225,31,246,56.8,246h142.4c25.8,0,46.8-21,46.8-46.8V56.8C246,31,225,10,199.2,10z M230.3,194.3c0,19.8-16.1,36-36,36H61.7c-19.8,0-36-16.1-36-36V61.7c0-19.8,16.1-36,36-36h132.6c19.8,0,36,16.1,36,36V194.3z"/><path fill="#000000" d="M128,140.7c24.6,0,44.5-19.9,44.5-44.5S152.6,51.8,128,51.8c-24.6,0-44.5,19.9-44.5,44.5S103.4,140.7,128,140.7L128,140.7z M163.6,136.8c-9.5,8.4-22,13.4-35.6,13.4s-26.1-5.1-35.6-13.4c-24.2,12.8-40.6,38.2-40.6,67.4h152.5C204.3,175,187.8,149.6,163.6,136.8L163.6,136.8z"/><path fill="#000000" d="M128,128"/></g></g>
</svg>